<svg xmlns="http://www.w3.org/2000/svg" viewBox="0 0 24 24" width="24" height="24">

  <!-- Outer ring -->
  <circle cx="12" cy="12" r="10" fill="none" stroke="#C4922A" stroke-width="1.2"/>

  <!-- Rays -->
  <line x1="12" y1="1"  x2="12" y2="3.5"  stroke="#C4922A" stroke-width="1.2" stroke-linecap="round"/>
  <line x1="12" y1="20.5" x2="12" y2="23" stroke="#C4922A" stroke-width="1.2" stroke-linecap="round"/>
  <line x1="1"  y1="12" x2="3.5"  y2="12" stroke="#C4922A" stroke-width="1.2" stroke-linecap="round"/>
  <line x1="20.5" y1="12" x2="23" y2="12" stroke="#C4922A" stroke-width="1.2" stroke-linecap="round"/>
  <line x1="3.8"  y1="3.8"  x2="5.6"  y2="5.6"  stroke="#C4922A" stroke-width="1.0" stroke-linecap="round"/>
  <line x1="20.2" y1="3.8"  x2="18.4" y2="5.6"  stroke="#C4922A" stroke-width="1.0" stroke-linecap="round"/>
  <line x1="3.8"  y1="20.2" x2="5.6"  y2="18.4" stroke="#C4922A" stroke-width="1.0" stroke-linecap="round"/>
  <line x1="20.2" y1="20.2" x2="18.4" y2="18.4" stroke="#C4922A" stroke-width="1.0" stroke-linecap="round"/>

  <!-- Horizon line -->
  <line x1="2" y1="12" x2="22" y2="12" stroke="#C4922A" stroke-width="1.2"/>

  <!-- Descending line -->
  <line x1="12" y1="12" x2="12" y2="22" stroke="#C4922A" stroke-width="1.2" stroke-linecap="round"/>

  <!-- Eye outline -->
  <path d="M 5 12 Q 12 6.5 19 12 Q 12 17.5 5 12 Z" fill="none" stroke="#C4922A" stroke-width="1.1" stroke-linejoin="round"/>

  <!-- Iris -->
  <circle cx="12" cy="12" r="3.2" fill="none" stroke="#C4922A" stroke-width="1.0"/>

  <!-- Pupil slit -->
  <path d="M 11.2 9 Q 10.5 12 11.2 15 Q 12 15.8 12.8 15 Q 13.5 12 12.8 9 Q 12 8.2 11.2 9 Z"
        fill="#C4922A" stroke="none"/>

</svg>
